  0
SECTION
  2
HEADER
  9
$ACADVER
  1
AC1015
  9
$ACADMAINTVER
 70
     6
  9
$DWGCODEPAGE
  3
ANSI_1252
  9
$INSBASE
 10
0.0
 20
0.0
 30
0.0
  9
$EXTMIN
 10
-7.5
 20
-3.0
 30
0.0
  9
$EXTMAX
 10
7.5
 20
3.0
 30
0.0
  9
$LIMMIN
 10
0.0
 20
0.0
  9
$LIMMAX
 10
12.0
 20
9.0
  9
$ORTHOMODE
 70
     0
  9
$REGENMODE
 70
     1
  9
$FILLMODE
 70
     1
  9
$QTEXTMODE
 70
     0
  9
$MIRRTEXT
 70
     1
  9
$LTSCALE
 40
1.0
  9
$ATTMODE
 70
     1
  9
$TEXTSIZE
 40
0.1944444444
  9
$TRACEWID
 40
0.05
  9
$TEXTSTYLE
  7
Standard
  9
$CLAYER
  8
0
  9
$CELTYPE
  6
ByLayer
  9
$CECOLOR
 62
   256
  9
$CELTSCALE
 40
1.0
  9
$DISPSILH
 70
     0
  9
$DIMSCALE
 40
1.0
  9
$DIMASZ
 40
0.12
  9
$DIMEXO
 40
0.0
  9
$DIMDLI
 40
0.38
  9
$DIMRND
 40
0.0
  9
$DIMDLE
 40
0.0
  9
$DIMEXE
 40
0.1
  9
$DIMTP
 40
0.0
  9
$DIMTM
 40
0.0
  9
$DIMTXT
 40
0.1944444444
  9
$DIMCEN
 40
0.09
  9
$DIMTSZ
 40
0.0
  9
$DIMTOL
 70
     0
  9
$DIMLIM
 70
     0
  9
$DIMTIH
 70
     1
  9
$DIMTOH
 70
     1
  9
$DIMSE1
 70
     0
  9
$DIMSE2
 70
     0
  9
$DIMTAD
 70
     0
  9
$DIMZIN
 70
     1
  9
$DIMBLK
  1

  9
$DIMASO
 70
     1
  9
$DIMSHO
 70
     1
  9
$DIMPOST
  1

  9
$DIMAPOST
  1

  9
$DIMALT
 70
     0
  9
$DIMALTD
 70
     2
  9
$DIMALTF
 40
25.4
  9
$DIMLFAC
 40
1.0
  9
$DIMTOFL
 70
     0
  9
$DIMTVP
 40
0.0
  9
$DIMTIX
 70
     0
  9
$DIMSOXD
 70
     0
  9
$DIMSAH
 70
     0
  9
$DIMBLK1
  1

  9
$DIMBLK2
  1

  9
$DIMSTYLE
  2
Standard
  9
$DIMCLRD
 70
     0
  9
$DIMCLRE
 70
     0
  9
$DIMCLRT
 70
     0
  9
$DIMTFAC
 40
1.0
  9
$DIMGAP
 40
0.06
  9
$DIMJUST
 70
     0
  9
$DIMSD1
 70
     0
  9
$DIMSD2
 70
     0
  9
$DIMTOLJ
 70
     1
  9
$DIMTZIN
 70
     1
  9
$DIMALTZ
 70
     0
  9
$DIMALTTZ
 70
     0
  9
$DIMUPT
 70
     0
  9
$DIMDEC
 70
     3
  9
$DIMTDEC
 70
     3
  9
$DIMALTU
 70
     2
  9
$DIMALTTD
 70
     2
  9
$DIMTXSTY
  7
Standard
  9
$DIMAUNIT
 70
     0
  9
$DIMADEC
 70
     1
  9
$DIMALTRND
 40
0.0
  9
$DIMAZIN
 70
     0
  9
$DIMDSEP
 70
    46
  9
$DIMATFIT
 70
     3
  9
$DIMFRAC
 70
     0
  9
$DIMLDRBLK
  1

  9
$DIMLUNIT
 70
     2
  9
$DIMLWD
 70
    -2
  9
$DIMLWE
 70
    -2
  9
$DIMTMOVE
 70
     0
  9
$LUNITS
 70
     2
  9
$LUPREC
 70
     3
  9
$SKETCHINC
 40
0.1
  9
$FILLETRAD
 40
0.0
  9
$AUNITS
 70
     0
  9
$AUPREC
 70
     1
  9
$MENU
  1
.
  9
$ELEVATION
 40
0.0
  9
$PELEVATION
 40
0.0
  9
$THICKNESS
 40
0.0
  9
$LIMCHECK
 70
     0
  9
$CHAMFERA
 40
0.0
  9
$CHAMFERB
 40
0.0
  9
$CHAMFERC
 40
0.0
  9
$CHAMFERD
 40
0.0
  9
$SKPOLY
 70
     0
  9
$TDCREATE
 40
2460370.670869156
  9
$TDUCREATE
 40
2460370.879202489
  9
$TDUPDATE
 40
2460370.670907674
  9
$TDUUPDATE
 40
2460370.879241007
  9
$TDINDWG
 40
0.0000000116
  9
$TDUSRTIMER
 40
0.0000000116
  9
$USRTIMER
 70
     1
  9
$ANGBASE
 50
0.0
  9
$ANGDIR
 70
     0
  9
$PDMODE
 70
     0
  9
$PDSIZE
 40
-1.0
  9
$PLINEWID
 40
0.0
  9
$SPLFRAME
 70
     0
  9
$SPLINETYPE
 70
     6
  9
$SPLINESEGS
 70
     8
  9
$HANDSEED
  5
E3
  9
$SURFTAB1
 70
     6
  9
$SURFTAB2
 70
     6
  9
$SURFTYPE
 70
     6
  9
$SURFU
 70
     6
  9
$SURFV
 70
     6
  9
$UCSBASE
  2

  9
$UCSNAME
  2

  9
$UCSORG
 10
0.0
 20
0.0
 30
0.0
  9
$UCSXDIR
 10
1.0
 20
0.0
 30
0.0
  9
$UCSYDIR
 10
0.0
 20
1.0
 30
0.0
  9
$UCSORTHOREF
  2

  9
$UCSORTHOVIEW
 70
     0
  9
$UCSORGTOP
 10
0.0
 20
0.0
 30
0.0
  9
$UCSORGBOTTOM
 10
0.0
 20
0.0
 30
0.0
  9
$UCSORGLEFT
 10
0.0
 20
0.0
 30
0.0
  9
$UCSORGRIGHT
 10
0.0
 20
0.0
 30
0.0
  9
$UCSORGFRONT
 10
0.0
 20
0.0
 30
0.0
  9
$UCSORGBACK
 10
0.0
 20
0.0
 30
0.0
  9
$PUCSBASE
  2

  9
$PUCSNAME
  2

  9
$PUCSORG
 10
0.0
 20
0.0
 30
0.0
  9
$PUCSXDIR
 10
1.0
 20
0.0
 30
0.0
  9
$PUCSYDIR
 10
0.0
 20
1.0
 30
0.0
  9
$PUCSORTHOREF
  2

  9
$PUCSORTHOVIEW
 70
     0
  9
$PUCSORGTOP
 10
0.0
 20
0.0
 30
0.0
  9
$PUCSORGBOTTOM
 10
0.0
 20
0.0
 30
0.0
  9
$PUCSORGLEFT
 10
0.0
 20
0.0
 30
0.0
  9
$PUCSORGRIGHT
 10
0.0
 20
0.0
 30
0.0
  9
$PUCSORGFRONT
 10
0.0
 20
0.0
 30
0.0
  9
$PUCSORGBACK
 10
0.0
 20
0.0
 30
0.0
  9
$USERI1
 70
     0
  9
$USERI2
 70
     0
  9
$USERI3
 70
     0
  9
$USERI4
 70
     0
  9
$USERI5
 70
     0
  9
$USERR1
 40
0.0
  9
$USERR2
 40
0.0
  9
$USERR3
 40
0.0
  9
$USERR4
 40
0.0
  9
$USERR5
 40
0.0
  9
$WORLDVIEW
 70
     1
  9
$SHADEDGE
 70
     3
  9
$SHADEDIF
 70
    70
  9
$TILEMODE
 70
     1
  9
$MAXACTVP
 70
    64
  9
$PINSBASE
 10
0.0
 20
0.0
 30
0.0
  9
$PLIMCHECK
 70
     0
  9
$PEXTMIN
 10
1.0000000000E+20
 20
1.0000000000E+20
 30
1.0000000000E+20
  9
$PEXTMAX
 10
-1.0000000000E+20
 20
-1.0000000000E+20
 30
-1.0000000000E+20
  9
$PLIMMIN
 10
0.0
 20
0.0
  9
$PLIMMAX
 10
12.0
 20
9.0
  9
$UNITMODE
 70
     0
  9
$VISRETAIN
 70
     1
  9
$PLINEGEN
 70
     0
  9
$PSLTSCALE
 70
     1
  9
$TREEDEPTH
 70
  3020
  9
$CMLSTYLE
  2
Standard
  9
$CMLJUST
 70
     0
  9
$CMLSCALE
 40
1.0
  9
$PROXYGRAPHICS
 70
     1
  9
$MEASUREMENT
 70
     0
  9
$CELWEIGHT
370
    -1
  9
$ENDCAPS
280
     0
  9
$JOINSTYLE
280
     0
  9
$LWDISPLAY
290
     1
  9
$INSUNITS
 70
     1
  9
$HYPERLINKBASE
  1

  9
$STYLESHEET
  1

  9
$XEDIT
290
     1
  9
$CEPSNTYPE
380
     0
  9
$PSTYLEMODE
290
     1
  9
$FINGERPRINTGUID
  2
{f2d54eab-5949-4046-a6a4-58efdc352bdb}
  9
$VERSIONGUID
  2
{FAEB1C32-E019-11D5-929B-00C0DF256EC4}
  9
$EXTNAMES
290
     1
  9
$PSVPSCALE
 40
0.0
  9
$OLESTARTUP
290
     0
  0
ENDSEC
  0
SECTION
  2
CLASSES
  0
CLASS
  1
ACDBDICTIONARYWDFLT
  2
AcDbDictionaryWithDefault
  3
ObjectDBX Classes
 90
        0
280
     0
281
     0
  0
CLASS
  1
VISUALSTYLE
  2
AcDbVisualStyle
  3
ObjectDBX Classes
 90
     4095
280
     0
281
     0
  0
CLASS
  1
MATERIAL
  2
AcDbMaterial
  3
ObjectDBX Classes
 90
     1153
280
     0
281
     0
  0
CLASS
  1
SCALE
  2
AcDbScale
  3
ObjectDBX Classes
 90
     1153
280
     0
281
     0
  0
CLASS
  1
TABLESTYLE
  2
AcDbTableStyle
  3
ObjectDBX Classes
 90
     4095
280
     0
281
     0
  0
CLASS
  1
MLEADERSTYLE
  2
AcDbMLeaderStyle
  3
ACDB_MLEADERSTYLE_CLASS
 90
     4095
280
     0
281
     0
  0
CLASS
  1
SUN
  2
AcDbSun
  3
SCENEOE
 90
     1153
280
     0
281
     0
  0
CLASS
  1
ACDBPLACEHOLDER
  2
AcDbPlaceHolder
  3
ObjectDBX Classes
 90
        0
280
     0
281
     0
  0
CLASS
  1
LAYOUT
  2
AcDbLayout
  3
ObjectDBX Classes
 90
        0
280
     0
281
     0
  0
ENDSEC
  0
SECTION
  2
TABLES
  0
TABLE
  2
VPORT
  5
8
330
0
100
AcDbSymbolTable
 70
     1
  0
VPORT
  5
29
330
8
100
AcDbSymbolTableRecord
100
AcDbViewportTableRecord
  2
*Active
 70
     0
 10
0.0
 20
0.0
 11
1.0
 21
1.0
 12
0.0
 22
0.0
 13
0.0
 23
0.0
 14
0.5
 24
0.5
 15
0.5
 25
0.5
 16
0.0
 26
0.0
 36
1.0
 17
0.0
 27
0.0
 37
0.0
 40
6.12
 41
2.5
 42
50.0
 43
0.0
 44
0.0
 50
0.0
 51
0.0
 71
     0
 72
   100
 73
     1
 74
     3
 75
     0
 76
     0
 77
     0
 78
     0
281
     0
 65
     1
110
0.0
120
0.0
130
0.0
111
1.0
121
0.0
131
0.0
112
0.0
122
1.0
132
0.0
 79
     0
146
0.0
  0
ENDTAB
  0
TABLE
  2
LTYPE
  5
5
330
0
100
AcDbSymbolTable
 70
     6
  0
LTYPE
  5
14
330
5
100
AcDbSymbolTableRecord
100
AcDbLinetypeTableRecord
  2
ByBlock
 70
     0
  3

 72
    65
 73
     0
 40
0.0
  0
LTYPE
  5
15
330
5
100
AcDbSymbolTableRecord
100
AcDbLinetypeTableRecord
  2
ByLayer
 70
     0
  3

 72
    65
 73
     0
 40
0.0
  0
LTYPE
  5
16
330
5
100
AcDbSymbolTableRecord
100
AcDbLinetypeTableRecord
  2
Continuous
 70
     0
  3
Solid line
 72
    65
 73
     0
 40
0.0
  0
LTYPE
  5
5E
330
5
100
AcDbSymbolTableRecord
100
AcDbLinetypeTableRecord
  2
HIDDEN
 70
     0
  3
Hidden __ __ __ __ __ __ __ __ __ __ __ __ __ __
 72
    65
 73
     2
 40
0.075
 49
0.05
 74
     0
 49
-0.025
 74
     0
  0
LTYPE
  5
5F
330
5
100
AcDbSymbolTableRecord
100
AcDbLinetypeTableRecord
  2
PHANTOM
 70
     0
  3
Phantom ______  __  __  ______  __  __  ______
 72
    65
 73
     6
 40
0.5
 49
0.25
 74
     0
 49
-0.05
 74
     0
 49
0.05
 74
     0
 49
-0.05
 74
     0
 49
0.05
 74
     0
 49
-0.05
 74
     0
  0
LTYPE
  5
60
330
5
100
AcDbSymbolTableRecord
100
AcDbLinetypeTableRecord
  2
CENTER
 70
     0
  3
Center ____ _ ____ _ ____ _ ____ _ ____ _ ____
 72
    65
 73
     4
 40
0.4
 49
0.25
 74
     0
 49
-0.05
 74
     0
 49
0.05
 74
     0
 49
-0.05
 74
     0
  0
LTYPE
  5
61
330
5
100
AcDbSymbolTableRecord
100
AcDbLinetypeTableRecord
  2
CENTERX2
 70
     0
  3
Center (2x) ________  __  ________  __  _____
 72
    65
 73
     4
 40
0.8
 49
0.5
 74
     0
 49
-0.1
 74
     0
 49
0.1
 74
     0
 49
-0.1
 74
     0
  0
LTYPE
  5
62
330
5
100
AcDbSymbolTableRecord
100
AcDbLinetypeTableRecord
  2
DOT2
 70
     0
  3
Dot (.5x) ........................................
 72
    65
 73
     2
 40
0.025
 49
0.0
 74
     0
 49
-0.025
 74
     0
  0
ENDTAB
  0
TABLE
  2
LAYER
  5
2
330
0
100
AcDbSymbolTable
 70
     1
  0
LAYER
  5
10
330
2
100
AcDbSymbolTableRecord
100
AcDbLayerTableRecord
  2
0
 70
     0
 62
     7
  6
Continuous
370
    -3
390
F
  0
ENDTAB
  0
TABLE
  2
STYLE
  5
3
330
0
100
AcDbSymbolTable
 70
     2
  0
STYLE
  5
11
330
3
100
AcDbSymbolTableRecord
100
AcDbTextStyleTableRecord
  2
Standard
 70
     0
 40
0.0
 41
1.0
 50
0.0
 71
     0
 42
0.1944444444
  3
txt
  4

  0
STYLE
  5
DF
330
3
100
AcDbSymbolTableRecord
100
AcDbTextStyleTableRecord
  2
SLDTEXTSTYLE0
 70
     0
 40
0.0
 41
0.7
 50
0.0
 71
     0
 42
0.1944444444
  3
TXT
  4

  0
ENDTAB
  0
TABLE
  2
VIEW
  5
6
330
0
100
AcDbSymbolTable
 70
     0
  0
ENDTAB
  0
TABLE
  2
UCS
  5
7
330
0
100
AcDbSymbolTable
 70
     0
  0
ENDTAB
  0
TABLE
  2
APPID
  5
9
330
0
100
AcDbSymbolTable
 70
     1
  0
APPID
  5
12
330
9
100
AcDbSymbolTableRecord
100
AcDbRegAppTableRecord
  2
ACAD
 70
     0
  0
ENDTAB
  0
TABLE
  2
DIMSTYLE
  5
A
330
0
100
AcDbSymbolTable
 70
     1
100
AcDbDimStyleTable
  0
DIMSTYLE
105
27
330
A
100
AcDbSymbolTableRecord
100
AcDbDimStyleTableRecord
  2
Standard
 70
     0
178
     0
340
11
  0
ENDTAB
  0
TABLE
  2
BLOCK_RECORD
  5
1
330
0
100
AcDbSymbolTable
 70
     1
  0
BLOCK_RECORD
  5
1F
330
1
100
AcDbSymbolTableRecord
100
AcDbBlockTableRecord
  2
*Model_Space
340
22
  0
BLOCK_RECORD
  5
1B
330
1
100
AcDbSymbolTableRecord
100
AcDbBlockTableRecord
  2
*Paper_Space
340
1E
  0
BLOCK_RECORD
  5
23
330
1
100
AcDbSymbolTableRecord
100
AcDbBlockTableRecord
  2
*Paper_Space0
340
26
  0
ENDTAB
  0
ENDSEC
  0
SECTION
  2
BLOCKS
  0
BLOCK
  5
20
330
1F
100
AcDbEntity
  8
0
100
AcDbBlockBegin
  2
*Model_Space
 70
     0
 10
0.0
 20
0.0
 30
0.0
  3
*Model_Space
  1

  0
ENDBLK
  5
21
330
1F
100
AcDbEntity
  8
0
100
AcDbBlockEnd
  0
BLOCK
  5
1C
330
1B
100
AcDbEntity
 67
     1
  8
0
100
AcDbBlockBegin
  2
*Paper_Space
 70
     0
 10
0.0
 20
0.0
 30
0.0
  3
*Paper_Space
  1

  0
ENDBLK
  5
1D
330
1B
100
AcDbEntity
 67
     1
  8
0
100
AcDbBlockEnd
  0
BLOCK
  5
24
330
23
100
AcDbEntity
  8
0
100
AcDbBlockBegin
  2
*Paper_Space0
 70
     0
 10
0.0
 20
0.0
 30
0.0
  3
*Paper_Space0
  1

  0
ENDBLK
  5
25
330
23
100
AcDbEntity
  8
0
100
AcDbBlockEnd
  0
ENDSEC
  0
SECTION
  2
ENTITIES
  0
SPLINE
  5
64
330
1F
100
AcDbEntity
  8
0
  6
Continuous
 62
     7
370
    25
100
AcDbSpline
210
0.0
220
0.0
230
1.0
 70
     8
 71
     3
 72
     9
 73
     5
 74
     0
 42
0.00000001
 43
0.00000001
 40
0.0
 40
0.0
 40
0.0
 40
0.0
 40
0.5032277154249613
 40
1.0
 40
1.0
 40
1.0
 40
1.0
 10
-4.525648118910866
 20
1.491685776596558
 30
0.0
 10
-4.534455155234876
 20
1.360688931194137
 30
0.0
 10
-4.551956250770864
 20
1.100375674616449
 30
0.0
 10
-4.556859775875244
 20
0.8395215137959781
 30
0.0
 10
-4.559295711243819
 20
0.7099363963842883
 30
0.0
  0
SPLINE
  5
75
330
1F
100
AcDbEntity
  8
0
  6
Continuous
 62
     7
370
    25
100
AcDbSpline
210
0.0
220
0.0
230
1.0
 70
     8
 71
     3
 72
    11
 73
     7
 74
     0
 42
0.00000001
 43
0.00000001
 40
0.0
 40
0.0
 40
0.0
 40
0.0
 40
0.2441911058476569
 40
0.4879423039497114
 40
0.7377909397911981
 40
1.0
 40
1.0
 40
1.0
 40
1.0
 10
-4.902269532404333
 20
0.7330734198750023
 30
0.0
 10
-4.871379836285124
 20
0.7937945520549462
 30
0.0
 10
-4.809656091514021
 20
0.9151274279247209
 30
0.0
 10
-4.724162649025457
 20
1.102386340950594
 30
0.0
 10
-4.638414313432972
 20
1.294992983135445
 30
0.0
 10
-4.578670656856867
 20
1.424744674024764
 30
0.0
 10
-4.548077760460442
 20
1.491186540226595
 30
0.0
  0
SPLINE
  5
76
330
1F
100
AcDbEntity
  8
0
  6
Continuous
 62
     7
370
    25
100
AcDbSpline
210
0.0
220
0.0
230
1.0
 70
     8
 71
     3
 72
    23
 73
    19
 74
     0
 42
0.00000001
 43
0.00000001
 40
0.0
 40
0.0
 40
0.0
 40
0.0
 40
0.0860609877873699
 40
0.1670060733558308
 40
0.2431072090507536
 40
0.31405849878688
 40
0.3813685902144748
 40
0.4442888823467128
 40
0.5045123021627075
 40
0.5617279137017128
 40
0.6168100689379592
 40
0.6701004528795287
 40
0.7227899755091582
 40
0.7749538833498715
 40
0.8279433410679505
 40
0.882778693754032
 40
0.9400641351997283
 40
1.0
 40
1.0
 40
1.0
 40
1.0
 10
0.9230770930321406
 20
0.109776029473634
 30
0.0
 10
0.9660973920348508
 20
0.1091955555226866
 30
0.0
 10
1.049580644966916
 20
0.1080691139406707
 30
0.0
 10
1.170806899386174
 20
0.0984057340279816
 30
0.0
 10
1.283705087398139
 20
0.08246997495464
 30
0.0
 10
1.388778113027571
 20
0.0610636142963364
 30
0.0
 10
1.485521159693955
 20
0.0332115982049178
 30
0.0
 10
1.574629136952949
 20
-0.0005648673961925
 30
0.0
 10
1.655815743001945
 20
-0.0401826587839971
 30
0.0
 10
1.728338246034384
 20
-0.0871521729897695
 30
0.0
 10
1.793007970619674
 20
-0.1391012948776486
 30
0.0
 10
1.848779497157957
 20
-0.1974653023600953
 30
0.0
 10
1.8962766308129
 20
-0.2608776237697865
 30
0.0
 10
1.935324728476199
 20
-0.3297166602957294
 30
0.0
 10
1.964847318608335
 20
-0.4042600684021092
 30
0.0
 10
1.986658426832036
 20
-0.4840165833497903
 30
0.0
 10
1.99938677836852
 20
-0.5693081264307772
 30
0.0
 10
2.001383354864755
 20
-0.6278960211031359
 30
0.0
 10
2.002404214832743
 20
-0.6578523169888579
 30
0.0
  0
SPLINE
  5
77
330
1F
100
AcDbEntity
  8
0
  6
Continuous
 62
     7
370
    25
100
AcDbSpline
210
0.0
220
0.0
230
1.0
 70
     8
 71
     3
 72
    23
 73
    19
 74
     0
 42
0.00000001
 43
0.00000001
 40
0.0
 40
0.0
 40
0.0
 40
0.0
 40
0.0698489806786783
 40
0.1365225283718355
 40
0.2004708980767326
 40
0.2621215725748497
 40
0.321820127454781
 40
0.3817666156971458
 40
0.4417201726840951
 40
0.5025926385581482
 40
0.5636631885086546
 40
0.6243962622467694
 40
0.6852443575481326
 40
0.7458167337718252
 40
0.8069843532317422
 40
0.8699274926291625
 40
0.9341997540246504
 40
1.0
 40
1.0
 40
1.0
 40
1.0
 10
2.002404214832743
 20
-0.6578523169888579
 30
0.0
 10
2.000850326108658
 20
-0.6864942368930054
 30
0.0
 10
1.997813190629238
 20
-0.742475974704269
 30
0.0
 10
1.983544453654803
 20
-0.8236222778198403
 30
0.0
 10
1.964331978657285
 20
-0.9002842263490957
 30
0.0
 10
1.935787127616038
 20
-0.9709808019015176
 30
0.0
 10
1.900963898001437
 20
-1.036840012175298
 30
0.0
 10
1.859403711025182
 20
-1.097907808818161
 30
0.0
 10
1.810141520557284
 20
-1.153642178483452
 30
0.0
 10
1.753867166965535
 20
-1.202902880868947
 30
0.0
 10
1.693005205375781
 20
-1.246806019743613
 30
0.0
 10
1.6286631610905
 20
-1.285372405647103
 30
0.0
 10
1.561505017940904
 20
-1.318471137561241
 30
0.0
 10
1.491158970279
 20
-1.344381557109063
 30
0.0
 10
1.418767137509337
 20
-1.367236037001974
 30
0.0
 10
1.342473377968558
 20
-1.380351201768701
 30
0.0
 10
1.263914853294076
 20
-1.3909931329742
 30
0.0
 10
1.210509941819175
 20
-1.392078855135142
 30
0.0
 10
1.183493807646243
 20
-1.392628093300032
 30
0.0
  0
SPLINE
  5
78
330
1F
100
AcDbEntity
  8
0
  6
Continuous
 62
     7
370
    25
100
AcDbSpline
210
0.0
220
0.0
230
1.0
 70
     8
 71
     3
 72
    15
 73
    11
 74
     0
 42
0.00000001
 43
0.00000001
 40
0.0
 40
0.0
 40
0.0
 40
0.0
 40
0.1463805762342834
 40
0.2885232572657377
 40
0.4260663658217019
 40
0.5594543607232915
 40
0.6865682018455458
 40
0.8012896070366177
 40
0.9066761230676945
 40
1.0
 40
1.0
 40
1.0
 40
1.0
 10
1.183493807646243
 20
-1.392628093300032
 30
0.0
 10
1.143399629165434
 20
-1.391554871638263
 30
0.0
 10
1.064372047294449
 20
-1.389439499383364
 30
0.0
 10
0.9481884190400584
 20
-1.377205048839577
 30
0.0
 10
0.8365849419063125
 20
-1.358071413479031
 30
0.0
 10
0.7306096351068782
 20
-1.33217449968312
 30
0.0
 10
0.6319607058059091
 20
-1.303164466420936
 30
0.0
 10
0.542252802016864
 20
-1.271515187918238
 30
0.0
 10
0.4624445948592156
 20
-1.239630903943501
 30
0.0
 10
0.4138486746604189
 20
-1.215063512845944
 30
0.0
 10
0.3910257130205596
 20
-1.203525494380253
 30
0.0
  0
SPLINE
  5
7A
330
1F
100
AcDbEntity
  8
0
  6
Continuous
 62
     7
370
    25
100
AcDbSpline
210
0.0
220
0.0
230
1.0
 70
     8
 71
     3
 72
    15
 73
    11
 74
     0
 42
0.00000001
 43
0.00000001
 40
0.0
 40
0.0
 40
0.0
 40
0.0
 40
0.0928430883789189
 40
0.1951628036895637
 40
0.3088686732313209
 40
0.4338490651626042
 40
0.567564890028181
 40
0.7059135777617832
 40
0.8497232808728116
 40
1.0
 40
1.0
 40
1.0
 40
1.0
 10
0.2308686510307395
 20
-1.824519198460035
 30
0.0
 10
0.2591966421617191
 20
-1.839142466392652
 30
0.0
 10
0.3187441030287185
 20
-1.869881620148347
 30
0.0
 10
0.4175575596446772
 20
-1.908726734501766
 30
0.0
 10
0.5291010767776987
 20
-1.944262285496777
 30
0.0
 10
0.6524815134335636
 20
-1.977709054147657
 30
0.0
 10
0.7856866283281684
 20
-2.007036892358547
 30
0.0
 10
0.9272523201060858
 20
-2.025814631967574
 30
0.0
 10
1.075013705639208
 20
-2.040697363331305
 30
0.0
 10
1.175974075064297
 20
-2.042399470382421
 30
0.0
 10
1.227564328580937
 20
-2.043269238735881
 30
0.0
  0
SPLINE
  5
7B
330
1F
100
AcDbEntity
  8
0
  6
Continuous
 62
     7
370
    25
100
AcDbSpline
210
0.0
220
0.0
230
1.0
 70
     8
 71
     3
 72
    23
 73
    19
 74
     0
 42
0.00000001
 43
0.00000001
 40
0.0
 40
0.0
 40
0.0
 40
0.0
 40
0.0753915510954855
 40
0.1469836201615798
 40
0.2155098707593574
 40
0.2811323542045334
 40
0.3445413587448098
 40
0.4064232778033061
 40
0.4675940163208023
 40
0.5284684827500294
 40
0.5888012138532623
 40
0.6472837163837868
 40
0.7051455936665068
 40
0.7626488562437127
 40
0.8200681519775234
 40
0.8783873217688261
 40
0.938297579271927
 40
1.0
 40
1.0
 40
1.0
 40
1.0
 10
1.227564328580937
 20
-2.043269238735881
 30
0.0
 10
1.288008198023621
 20
-2.04080680008166
 30
0.0
 10
1.405849768042619
 20
-2.036006021445802
 30
0.0
 10
1.577283340149628
 20
-2.012084390100061
 30
0.0
 10
1.738724586097323
 20
-1.977274224432556
 30
0.0
 10
1.890255843982771
 20
-1.930168430029396
 30
0.0
 10
2.031384253884196
 20
-1.870017968301126
 30
0.0
 10
2.161884747663969
 20
-1.796455402599138
 30
0.0
 10
2.282783792386238
 20
-1.711455404826571
 30
0.0
 10
2.392384859000793
 20
-1.614180333188954
 30
0.0
 10
2.490470985244619
 20
-1.508277238828103
 30
0.0
 10
2.575971776411368
 20
-1.395050029887333
 30
0.0
 10
2.649739945980425
 20
-1.276404149271407
 30
0.0
 10
2.70843604060871
 20
-1.150626080099806
 30
0.0
 10
2.756851197830905
 20
-1.02014763356198
 30
0.0
 10
2.789951717670312
 20
-0.8829635149667128
 30
0.0
 10
2.811405444766693
 20
-0.739980598161157
 30
0.0
 10
2.81478980940972
 20
-0.6424383207113149
 30
0.0
 10
2.816506928826366
 20
-0.5929484588850352
 30
0.0
  0
SPLINE
  5
7C
330
1F
100
AcDbEntity
  8
0
  6
Continuous
 62
     7
370
    25
100
AcDbSpline
210
0.0
220
0.0
230
1.0
 70
     8
 71
     3
 72
    23
 73
    19
 74
     0
 42
0.00000001
 43
0.00000001
 40
0.0
 40
0.0
 40
0.0
 40
0.0
 40
0.0748237804402667
 40
0.1450418556496709
 40
0.2114246135745036
 40
0.2751013963344326
 40
0.336055020385007
 40
0.3957928774007231
 40
0.4552519057076322
 40
0.5147109340145415
 40
0.5745871426812277
 40
0.6336902441088392
 40
0.6924927489670964
 40
0.7519517772740056
 40
0.8117865140349927
 40
0.8729693494064926
 40
0.9353453191515989
 40
1.0
 40
1.0
 40
1.0
 40
1.0
 10
2.816506928826366
 20
-0.5929484588850352
 30
0.0
 10
2.81358696927291
 20
-0.5392008398871262
 30
0.0
 10
2.807926785444144
 20
-0.4350139844470748
 30
0.0
 10
2.786212354997495
 20
-0.2841569352634301
 30
0.0
 10
2.749188951899466
 20
-0.1447527174116448
 30
0.0
 10
2.703204231269535
 20
-0.0149537620783556
 30
0.0
 10
2.641654488704887
 20
0.1028527619274269
 30
0.0
 10
2.5708323845609
 20
0.2117310679175678
 30
0.0
 10
2.485003184631402
 20
0.3079904564827067
 30
0.0
 10
2.388103940627833
 20
0.3928959929375924
 30
0.0
 10
2.283505112404716
 20
0.4675630509805629
 30
0.0
 10
2.173389845577726
 20
0.5328697347890264
 30
0.0
 10
2.057979676074988
 20
0.5876681895045403
 30
0.0
 10
1.937743149798657
 20
0.6321688620806747
 30
0.0
 10
1.812876381645242
 20
0.6683395466393106
 30
0.0
 10
1.682845577575397
 20
0.6914352842670518
 30
0.0
 10
1.548169464416621
 20
0.7065605407906097
 30
0.0
 10
1.456774093265716
 20
0.7082667210751958
 30
0.0
 10
1.410256669910215
 20
0.7091351141854756
 30
0.0
  0
SPLINE
  5
7D
330
1F
100
AcDbEntity
  8
0
  6
Continuous
 62
     7
370
    25
100
AcDbSpline
210
0.0
220
0.0
230
1.0
 70
     8
 71
     3
 72
     9
 73
     5
 74
     0
 42
0.00000001
 43
0.00000001
 40
0.0
 40
0.0
 40
0.0
 40
0.0
 40
0.5157597247979684
 40
1.0
 40
1.0
 40
1.0
 40
1.0
 10
1.410256669910215
 20
0.7091351141854756
 30
0.0
 10
1.370131442451756
 20
0.7086290369077823
 30
0.0
 10
1.292333146987377
 20
0.7076478100818767
 30
0.0
 10
1.215224125863931
 20
0.6973128108720091
 30
0.0
 10
1.177884832254555
 20
0.69230818801041
 30
0.0
  0
SPLINE
  5
83
330
1F
100
AcDbEntity
  8
0
  6
Continuous
 62
     7
370
    25
100
AcDbSpline
210
0.0
220
0.0
230
1.0
 70
     8
 71
     3
 72
    11
 73
     7
 74
     0
 42
0.00000001
 43
0.00000001
 40
0.0
 40
0.0
 40
0.0
 40
0.0
 40
0.2193636137411191
 40
0.4611892463379433
 40
0.7196790281847553
 40
1.0
 40
1.0
 40
1.0
 40
1.0
 10
0.452410658968073
 20
0.0835074323895134
 30
0.0
 10
0.4866774346223777
 20
0.087473315743322
 30
0.0
 10
0.5587197764169956
 20
0.0958111741684924
 30
0.0
 10
0.6716758796620667
 20
0.102935890148673
 30
0.0
 10
0.7942679196438849
 20
0.1092854177436142
 30
0.0
 10
0.8789963773915953
 20
0.1096081336973314
 30
0.0
 10
0.9230770930321406
 20
0.109776029473634
 30
0.0
  0
SPLINE
  5
84
330
1F
100
AcDbEntity
  8
0
  6
Continuous
 62
     7
370
    25
100
AcDbSpline
210
0.0
220
0.0
230
1.0
 70
     8
 71
     3
 72
    19
 73
    15
 74
     0
 42
0.00000001
 43
0.00000001
 40
0.0
 40
0.0
 40
0.0
 40
0.0
 40
0.0835286514160044
 40
0.1620127914087547
 40
0.2359321370714645
 40
0.3044882259014671
 40
0.3703425597085069
 40
0.4325436335145494
 40
0.4910422575743489
 40
0.5490640672255808
 40
0.6597304699564299
 40
0.7689430576894305
 40
0.8802478978292767
 40
1.0
 40
1.0
 40
1.0
 40
1.0
 10
4.422276455246861
 20
1.596955790469861
 30
0.0
 10
4.447129755321012
 20
1.596174172698671
 30
0.0
 10
4.495335400359851
 20
1.594658141076248
 30
0.0
 10
4.565312436959109
 20
1.587737350104049
 30
0.0
 10
4.629978874329675
 20
1.575437163934335
 30
0.0
 10
4.690202743011496
 20
1.560479048610108
 30
0.0
 10
4.745477246430384
 20
1.540798386513671
 30
0.0
 10
4.795115756047887
 20
1.515683781521863
 30
0.0
 10
4.840289710237226
 20
1.487377175609905
 30
0.0
 10
4.892563870107412
 20
1.444255963442469
 30
0.0
 10
4.947565609820906
 20
1.381456643403278
 30
0.0
 10
4.994437429528714
 20
1.294004713312588
 30
0.0
 10
5.024008329249495
 20
1.196054869502597
 30
0.0
 10
5.026667568213489
 20
1.127089874038305
 30
0.0
 10
5.028045797549202
 20
1.091346723019096
 30
0.0
  0
SPLINE
  5
85
330
1F
100
AcDbEntity
  8
0
  6
Continuous
 62
     7
370
    25
100
AcDbSpline
210
0.0
220
0.0
230
1.0
 70
     8
 71
     3
 72
    19
 73
    15
 74
     0
 42
0.00000001
 43
0.00000001
 40
0.0
 40
0.0
 40
0.0
 40
0.0
 40
0.0688402205697695
 40
0.1349679741425769
 40
0.1975446378384038
 40
0.2584750607651264
 40
0.318846761952621
 40
0.3787029298179294
 40
0.4401398723751689
 40
0.5036810772772105
 40
0.6313319895604169
 40
0.7550749493613967
 40
0.8771779832891702
 40
0.9999999999999999
 40
0.9999999999999999
 40
0.9999999999999999
 40
0.9999999999999999
 10
5.028045797549202
 20
1.091346723019096
 30
0.0
 10
5.026202304835562
 20
1.067233785742693
 30
0.0
 10
5.022587957367654
 20
1.019958017770325
 30
0.0
 10
5.007839942320855
 20
0.9520202342315075
 30
0.0
 10
4.987187626650253
 20
0.8886075396789832
 30
0.0
 10
4.95886583388327
 20
0.8303980331132603
 30
0.0
 10
4.923583008330079
 20
0.7772454988740038
 30
0.0
 10
4.880974231956442
 20
0.7296440937175682
 30
0.0
 10
4.833022024496134
 20
0.6856639700707816
 30
0.0
 10
4.758823974674399
 20
0.6367265397290739
 30
0.0
 10
4.660230473428592
 20
0.5860820700319299
 30
0.0
 10
4.536656093941335
 20
0.5415085413523342
 30
0.0
 10
4.409611044038477
 20
0.5138371384663183
 30
0.0
 10
4.323587526682709
 20
0.510492029024023
 30
0.0
 10
4.280449506057026
 20
0.5088145644823198
 30
0.0
  0
SPLINE
  5
89
330
1F
100
AcDbEntity
  8
0
  6
Continuous
 62
     7
370
    25
100
AcDbSpline
210
0.0
220
0.0
230
1.0
 70
     8
 71
     3
 72
    23
 73
    19
 74
     0
 42
0.00000001
 43
0.00000001
 40
0.0
 40
0.0
 40
0.0
 40
0.0
 40
0.0662740688310789
 40
0.1311850290048557
 40
0.1948405881947805
 40
0.2573896093228238
 40
0.3185032801372429
 40
0.3796489765171857
 40
0.4407199204532887
 40
0.5018300318355252
 40
0.5624002685554141
 40
0.6216341793092671
 40
0.680470146869054
 40
0.7389649904915421
 40
0.8004583301117678
 40
0.863516493674203
 40
0.9298855643832991
 40
1.0
 40
1.0
 40
1.0
 40
1.0
 10
4.297757671052667
 20
-0.0480773461945996
 30
0.0
 10
4.32458160649619
 20
-0.0489087263803953
 30
0.0
 10
4.37767776931293
 20
-0.0505543871299361
 30
0.0
 10
4.456401039321653
 20
-0.057131534372442
 30
0.0
 10
4.5325889104721
 20
-0.0712766844022853
 30
0.0
 10
4.60623249416502
 20
-0.0895540552834732
 30
0.0
 10
4.677572460124849
 20
-0.1125541544640817
 30
0.0
 10
4.745485856776129
 20
-0.1427610174616037
 30
0.0
 10
4.811478063852205
 20
-0.1768973900901201
 30
0.0
 10
4.873876728169105
 20
-0.2168785882009008
 30
0.0
 10
4.931741512395296
 20
-0.2620678951851108
 30
0.0
 10
4.982588728381197
 20
-0.3138048465284965
 30
0.0
 10
5.026127856898638
 20
-0.3707839162222493
 30
0.0
 10
5.061912496794959
 20
-0.4339505936132954
 30
0.0
 10
5.0907405737709
 20
-0.5024721130541716
 30
0.0
 10
5.111056067085132
 20
-0.577193877676581
 30
0.0
 10
5.126266928853997
 20
-0.6567411320893926
 30
0.0
 10
5.129136011271333
 20
-0.7119978501433551
 30
0.0
 10
5.130609918997219
 20
-0.7403843834665578
 30
0.0
  0
SPLINE
  5
8A
330
1F
100
AcDbEntity
  8
0
  6
Continuous
 62
     7
370
    25
100
AcDbSpline
210
0.0
220
0.0
230
1.0
 70
     8
 71
     3
 72
    23
 73
    19
 74
     0
 42
0.00000001
 43
0.00000001
 40
0.0
 40
0.0
 40
0.0
 40
0.0
 40
0.0579976751310629
 40
0.1150698907263448
 40
0.1702585552106799
 40
0.2257063662829137
 40
0.2804338944590303
 40
0.3362681702258791
 40
0.3929397793323604
 40
0.4517091538608454
 40
0.5110118800132818
 40
0.572150984662559
 40
0.6345704764810455
 40
0.6994118745929563
 40
0.7682219146609081
 40
0.8411919522290635
 40
0.9183166697289743
 40
1.0
 40
1.0
 40
1.0
 40
1.0
 10
5.130609918997219
 20
-0.7403843834665578
 30
0.0
 10
5.130281295491362
 20
-0.7620513918276021
 30
0.0
 10
5.129629292271864
 20
-0.8050396715963685
 30
0.0
 10
5.120405754632603
 20
-0.8680796209411205
 30
0.0
 10
5.106050370827665
 20
-0.9290917514145497
 30
0.0
 10
5.085266249660298
 20
-0.9873781393771924
 30
0.0
 10
5.058212955256509
 20
-1.043198831816204
 30
0.0
 10
5.026638467544151
 20
-1.097215335682403
 30
0.0
 10
4.987164066057121
 20
-1.147646866359341
 30
0.0
 10
4.943956161687995
 20
-1.196620383972941
 30
0.0
 10
4.893650960530338
 20
-1.240975360376617
 30
0.0
 10
4.837711622115235
 20
-1.280361612048821
 30
0.0
 10
4.775328375546237
 20
-1.313219878193642
 30
0.0
 10
4.707277189312039
 20
-1.340378453476089
 30
0.0
 10
4.633459719406248
 20
-1.363175384555748
 30
0.0
 10
4.553092895830579
 20
-1.378555008523477
 30
0.0
 10
4.467149273210306
 20
-1.389224269779241
 30
0.0
 10
4.407886574520699
 20
-1.3914719785025
 30
0.0
 10
4.377404652113354
 20
-1.392628093300032
 30
0.0
  0
SPLINE
  5
8B
330
1F
100
AcDbEntity
  8
0
  6
Continuous
 62
     7
370
    25
100
AcDbSpline
210
0.0
220
0.0
230
1.0
 70
     8
 71
     3
 72
    15
 73
    11
 74
     0
 42
0.00000001
 43
0.00000001
 40
0.0
 40
0.0
 40
0.0
 40
0.0
 40
0.1427492068344626
 40
0.2826888561679464
 40
0.4211880698756471
 40
0.5574851869555327
 40
0.6873889260008474
 40
0.8047690681674704
 40
0.9087976295873126
 40
0.9999999999999999
 40
0.9999999999999999
 40
0.9999999999999999
 40
0.9999999999999999
 10
4.377404652113354
 20
-1.392628093300032
 30
0.0
 10
4.336749761777192
 20
-1.391182338587532
 30
0.0
 10
4.256240141432399
 20
-1.388319284178761
 30
0.0
 10
4.137278035403435
 20
-1.371940977360426
 30
0.0
 10
4.021015733616748
 20
-1.350556580370293
 30
0.0
 10
3.91009251775328
 20
-1.318758445880655
 30
0.0
 10
3.806685862525633
 20
-1.283405957808978
 30
0.0
 10
3.713918428121125
 20
-1.245869809488125
 30
0.0
 10
3.633103825409607
 20
-1.20818038832202
 30
0.0
 10
3.585527348119947
 20
-1.179338673609303
 30
0.0
 10
3.56330193811973
 20
-1.16586523103606
 30
0.0
  0
SPLINE
  5
8D
330
1F
100
AcDbEntity
  8
0
  6
Continuous
 62
     7
370
    25
100
AcDbSpline
210
0.0
220
0.0
230
1.0
 70
     8
 71
     3
 72
    15
 73
    11
 74
     0
 42
0.00000001
 43
0.00000001
 40
0.0
 40
0.0
 40
0.0
 40
0.0
 40
0.0926488111044177
 40
0.1963546050681799
 40
0.3094743954714593
 40
0.4344021327964464
 40
0.5670672421943365
 40
0.7054141985101465
 40
0.8493097131013787
 40
1.0
 40
1.0
 40
1.0
 40
1.0
 10
3.381228555988949
 20
-1.787452071743479
 30
0.0
 10
3.410045850348139
 20
-1.805280643032859
 30
0.0
 10
3.471119580119534
 20
-1.843065499985968
 30
0.0
 10
3.574954045907654
 20
-1.888491534234177
 30
0.0
 10
3.691827406080535
 20
-1.932511291155998
 30
0.0
 10
3.822139813330792
 20
-1.969894506901816
 30
0.0
 10
3.963229951057923
 20
-2.002204826654978
 30
0.0
 10
4.113212513703698
 20
-2.024938857199076
 30
0.0
 10
4.270810022443669
 20
-2.039737715270016
 30
0.0
 10
4.378438774084428
 20
-2.042074100936799
 30
0.0
 10
4.433494406030237
 20
-2.043269238735881
 30
0.0
  0
SPLINE
  5
8E
330
1F
100
AcDbEntity
  8
0
  6
Continuous
 62
     7
370
    25
100
AcDbSpline
210
0.0
220
0.0
230
1.0
 70
     8
 71
     3
 72
    23
 73
    19
 74
     0
 42
0.00000001
 43
0.00000001
 40
0.0
 40
0.0
 40
0.0
 40
0.0
 40
0.0802018989862685
 40
0.1560929119050356
 40
0.227745577944864
 40
0.2959046213471465
 40
0.361066073277749
 40
0.4239592081607901
 40
0.4847848672811941
 40
0.544791833702897
 40
0.603483940879005
 40
0.6604310447698454
 40
0.7162268771532723
 40
0.7715022808531801
 40
0.8267788729008866
 40
0.8829548478271234
 40
0.9404678040407508
 40
1.0
 40
1.0
 40
1.0
 40
1.0
 10
4.433494406030237
 20
-2.043269238735881
 30
0.0
 10
4.4925718113064
 20
-2.041115013239471
 30
0.0
 10
4.607551186282657
 20
-2.036922352780242
 30
0.0
 10
4.774487883576688
 20
-2.017809525616958
 30
0.0
 10
4.930662585389127
 20
-1.987387719060919
 30
0.0
 10
5.07628430829487
 20
-1.946649306558337
 30
0.0
 10
5.211805255465083
 20
-1.895583167243876
 30
0.0
 10
5.336386854833028
 20
-1.832955704035927
 30
0.0
 10
5.450609277824979
 20
-1.759728369210894
 30
0.0
 10
5.552850373103695
 20
-1.675331677121463
 30
0.0
 10
5.644111570268136
 20
-1.58328185258478
 30
0.0
 10
5.724047543933976
 20
-1.485163533435377
 30
0.0
 10
5.791719147068629
 20
-1.381222335931583
 30
0.0
 10
5.84765767513485
 20
-1.271828851947775
 30
0.0
 10
5.889826912207587
 20
-1.156174196786353
 30
0.0
 10
5.921604900465249
 20
-1.035588568658492
 30
0.0
 10
5.939943443924896
 20
-0.9089378561237542
 30
0.0
 10
5.943104724043041
 20
-0.8227057908752166
 30
0.0
 10
5.944712632990843
 20
-0.7788459290095636
 30
0.0
  0
SPLINE
  5
8F
330
1F
100
AcDbEntity
  8
0
  6
Continuous
 62
     7
370
    25
100
AcDbSpline
210
0.0
220
0.0
230
1.0
 70
     8
 71
     3
 72
    23
 73
    19
 74
     0
 42
0.00000001
 43
0.00000001
 40
0.0
 40
0.0
 40
0.0
 40
0.0
 40
0.0727503590292707
 40
0.1420852726713573
 40
0.2089752852650235
 40
0.2738842958760222
 40
0.3373196793060063
 40
0.3990773019181837
 40
0.4607551986651235
 40
0.5218997713354289
 40
0.5830921063367256
 40
0.6427783132579727
 40
0.701678748689129
 40
0.7602886907877622
 40
0.8193325348266312
 40
0.8786802954266112
 40
0.9386646011626141
 40
1.0
 40
1.0
 40
1.0
 40
1.0
 10
5.944712632990843
 20
-0.7788459290095636
 30
0.0
 10
5.94339826049838
 20
-0.7438158256356313
 30
0.0
 10
5.940831221978224
 20
-0.6754001936579465
 30
0.0
 10
5.927709992829191
 20
-0.5754626362004136
 30
0.0
 10
5.907823694024839
 20
-0.4805605410928468
 30
0.0
 10
5.880602989956635
 20
-0.390407954567812
 30
0.0
 10
5.846048174983819
 20
-0.3055010187575452
 30
0.0
 10
5.805157335891114
 20
-0.2251562228234553
 30
0.0
 10
5.756088425333844
 20
-0.1508098912411557
 30
0.0
 10
5.700409376252566
 20
-0.0817227716786804
 30
0.0
 10
5.639951271682925
 20
-0.0180947286899755
 30
0.0
 10
5.575432127312025
 20
0.0397527115882517
 30
0.0
 10
5.508124438298831
 20
0.0923904301249873
 30
0.0
 10
5.436267345977466
 20
0.1380785739505346
 30
0.0
 10
5.360921149026937
 20
0.1781434631034487
 30
0.0
 10
5.282126978426589
 20
0.2125166472123822
 30
0.0
 10
5.200142028573084
 20
0.242097179444735
 30
0.0
 10
5.14331448206012
 20
0.2558619151732218
 30
0.0
 10
5.114584275020966
 20
0.262820929446845
 30
0.0
  0
SPLINE
  5
91
330
1F
100
AcDbEntity
  8
0
  6
Continuous
 62
     7
370
    25
100
AcDbSpline
210
0.0
220
0.0
230
1.0
 70
     8
 71
     3
 72
    23
 73
    19
 74
     0
 42
0.00000001
 43
0.00000001
 40
0.0
 40
0.0
 40
0.0
 40
0.0
 40
0.0586634043217195
 40
0.1160379615314943
 40
0.171796008711202
 40
0.2265612516254859
 40
0.2816022239075887
 40
0.3371265449458158
 40
0.3936626910860018
 40
0.4520152592270656
 40
0.5118125016305901
 40
0.5725738428973394
 40
0.6350760011038861
 40
0.7004526678881442
 40
0.7693685102838635
 40
0.8415956056625975
 40
0.9183085437454543
 40
1.0
 40
1.0
 40
1.0
 40
1.0
 10
5.842148511542827
 20
1.223558285823179
 30
0.0
 10
5.84124418324382
 20
1.258331774363958
 30
0.0
 10
5.839455394925357
 20
1.327114770718585
 30
0.0
 10
5.824673116303178
 20
1.428058272556919
 30
0.0
 10
5.800899902709185
 20
1.524855769573768
 30
0.0
 10
5.766391484067814
 20
1.616848489499785
 30
0.0
 10
5.724525743761432
 20
1.705632052583038
 30
0.0
 10
5.670681181693243
 20
1.788994308741775
 30
0.0
 10
5.60874290103853
 20
1.868876174068189
 30
0.0
 10
5.537534904373024
 20
1.94425086789949
 30
0.0
 10
5.456758866032168
 20
2.01325977898048
 30
0.0
 10
5.36630998812828
 20
2.073566686124611
 30
0.0
 10
5.266911837517641
 20
2.12514116692364
 30
0.0
 10
5.158080723116076
 20
2.167617716368258
 30
0.0
 10
5.040095839945815
 20
2.200585129911529
 30
0.0
 10
4.913562978118531
 20
2.226700781171948
 30
0.0
 10
4.777620634075402
 20
2.242473999711001
 30
0.0
 10
4.683801444440441
 20
2.245853881550488
 30
0.0
 10
4.635417520131018
 20
2.24759693590571
 30
0.0
  0
SPLINE
  5
92
330
1F
100
AcDbEntity
  8
0
  6
Continuous
 62
     7
370
    25
100
AcDbSpline
210
0.0
220
0.0
230
1.0
 70
     8
 71
     3
 72
    15
 73
    11
 74
     0
 42
0.00000001
 43
0.00000001
 40
0.0
 40
0.0
 40
0.0
 40
0.0
 40
0.1474160337960012
 40
0.2891521251634866
 40
0.4274081091940194
 40
0.5612772199774084
 40
0.6874731225901569
 40
0.8024796135871906
 40
0.9063012285899275
 40
1.0
 40
1.0
 40
1.0
 40
1.0
 10
4.635417520131018
 20
2.24759693590571
 30
0.0
 10
4.579290509668591
 20
2.245883661783054
 30
0.0
 10
4.469199063464425
 20
2.242523126020444
 30
0.0
 10
4.307103822328744
 20
2.225774013243197
 30
0.0
 10
4.151914516586941
 20
2.197562747723224
 30
0.0
 10
4.004663413856185
 20
2.160486457409522
 30
0.0
 10
3.869152097902064
 20
2.115129794648754
 30
0.0
 10
3.745938555232991
 20
2.069251516621468
 30
0.0
 10
3.638698900051918
 20
2.017051282654417
 30
0.0
 10
3.574517316450851
 20
1.977769600081764
 30
0.0
 10
3.544071165348227
 20
1.959135344333166
 30
0.0
  0
SPLINE
  5
94
330
1F
100
AcDbEntity
  8
0
  6
Continuous
 62
     7
370
    25
100
AcDbSpline
210
0.0
220
0.0
230
1.0
 70
     8
 71
     3
 72
    15
 73
    11
 74
     0
 42
0.00000001
 43
0.00000001
 40
0.0
 40
0.0
 40
0.0
 40
0.0
 40
0.0986896679507931
 40
0.2075660791849845
 40
0.3253765211257017
 40
0.4542757865852106
 40
0.587953206926454
 40
0.7229091015064124
 40
0.8598974896113223
 40
1.0
 40
1.0
 40
1.0
 40
1.0
 10
3.691387367101216
 20
1.372410539291274
 30
0.0
 10
3.713148692616897
 20
1.385618690500011
 30
0.0
 10
3.758917546732509
 20
1.413398337717456
 30
0.0
 10
3.834414546588107
 20
1.450172681251749
 30
0.0
 10
3.9182210109474
 20
1.487339692517568
 30
0.0
 10
4.009621029599498
 20
1.523021192682759
 30
0.0
 10
4.107288834905143
 20
1.55441980567214
 30
0.0
 10
4.209369786379698
 20
1.57771594697057
 30
0.0
 10
4.314772609349934
 20
1.592295514316862
 30
0.0
 10
4.386174354000944
 20
1.59539076960846
 30
0.0
 10
4.422276455246861
 20
1.596955790469861
 30
0.0
  0
SPLINE
  5
9B
330
1F
100
AcDbEntity
  8
0
  6
Continuous
 62
     7
370
    25
100
AcDbSpline
210
0.0
220
0.0
230
1.0
 70
     8
 71
     3
 72
    11
 73
     7
 74
     0
 42
0.00000001
 43
0.00000001
 40
0.0
 40
0.0
 40
0.0
 40
0.0
 40
0.2622090602088017
 40
0.5120576960502885
 40
0.7558088941523431
 40
1.0
 40
1.0
 40
1.0
 40
1.0
 10
-1.368589995571958
 20
1.491186540226595
 30
0.0
 10
-1.399182891968383
 20
1.424744674024764
 30
0.0
 10
-1.458926548544491
 20
1.294992983135446
 30
0.0
 10
-1.544674884136971
 20
1.102386340950593
 30
0.0
 10
-1.630168326625538
 20
0.9151274279247209
 30
0.0
 10
-1.69189207139664
 20
0.7937945520549462
 30
0.0
 10
-1.72278176751585
 20
0.7330734198750023
 30
0.0
  0
SPLINE
  5
9D
330
1F
100
AcDbEntity
  8
0
  6
Continuous
 62
     7
370
    25
100
AcDbSpline
210
0.0
220
0.0
230
1.0
 70
     8
 71
     3
 72
     9
 73
     5
 74
     0
 42
0.00000001
 43
0.00000001
 40
0.0
 40
0.0
 40
0.0
 40
0.0
 40
0.4967722845750387
 40
1.0
 40
1.0
 40
1.0
 40
1.0
 10
-1.379807946355335
 20
0.7099363963842883
 30
0.0
 10
-1.377372010986761
 20
0.8395215137959781
 30
0.0
 10
-1.37246848588238
 20
1.100375674616449
 30
0.0
 10
-1.354967390346393
 20
1.360688931194137
 30
0.0
 10
-1.346160354022383
 20
1.491685776596558
 30
0.0
  0
SPLINE
  5
AC
330
1F
100
AcDbEntity
  8
0
  6
Continuous
 62
     7
370
    25
100
AcDbSpline
210
0.0
220
0.0
230
1.0
 70
     8
 71
     3
 72
    23
 73
    19
 74
     0
 42
0.00000001
 43
0.00000001
 40
0.0
 40
0.0
 40
0.0
 40
0.0
 40
0.0721195707799842
 40
0.1417161029692477
 40
0.2088287879594189
 40
0.2743315817434097
 40
0.33768069052119
 40
0.3996847072698907
 40
0.461103692800529
 40
0.5215005858333074
 40
0.5812836700725201
 40
0.6403310153233479
 40
0.6990203338462189
 40
0.7577362477340086
 40
0.8166942901289833
 40
0.876487166579925
 40
0.9374756957718834
 40
0.9999999999999999
 40
0.9999999999999999
 40
0.9999999999999999
 40
0.9999999999999999
 10
5.114794768098584
 20
0.2736718867231482
 30
0.0
 10
5.143739030719082
 20
0.2843308091878833
 30
0.0
 10
5.200614966855876
 20
0.3052757612614589
 30
0.0
 10
5.281553443922348
 20
0.3432110071710416
 30
0.0
 10
5.357279840597255
 20
0.3850208860116599
 30
0.0
 10
5.427724330655764
 20
0.4305278336999746
 30
0.0
 10
5.492819398477491
 20
0.4797977521400482
 30
0.0
 10
5.553670560121126
 20
0.5316579035337774
 30
0.0
 10
5.607802976477655
 20
0.5887925227525718
 30
0.0
 10
5.656993768454621
 20
0.6489539361151992
 30
0.0
 10
5.700174693734477
 20
0.7123623469186757
 30
0.0
 10
5.738035467682172
 20
0.7782292163296741
 30
0.0
 10
5.770119564576883
 20
0.8465876677351293
 30
0.0
 10
5.796879952081462
 20
0.9171855717953624
 30
0.0
 10
5.816726275529402
 20
0.9905260550994103
 30
0.0
 10
5.831136372120604
 20
1.066059079026264
 30
0.0
 10
5.84018941255145
 20
1.144013916268172
 30
0.0
 10
5.841490087623288
 20
1.19682461089911
 30
0.0
 10
5.842148511542827
 20
1.223558285823179
 30
0.0
  0
LINE
  5
AD
330
1F
100
AcDbEntity
  8
0
  6
Continuous
 62
     7
370
    25
100
AcDbLine
 10
-4.5480777605
 20
1.4911865402
 30
0.0
 11
-4.5256481189
 21
1.4916857766
 31
0.0
  0
LINE
  5
AE
330
1F
100
AcDbEntity
  8
0
  6
Continuous
 62
     7
370
    25
100
AcDbLine
 10
-4.5592957112
 20
0.7099363964
 30
0.0
 11
-4.5588794201
 21
-0.3621791856
 31
0.0
  0
LINE
  5
AF
330
1F
100
AcDbEntity
  8
0
  6
Continuous
 62
     7
370
    25
100
AcDbLine
 10
-4.5588794201
 20
-2.0068633263
 30
0.0
 11
-4.5588794201
 21
-0.3621791856
 31
0.0
  0
LINE
  5
B0
330
1F
100
AcDbEntity
  8
0
  6
Continuous
 62
     7
370
    25
100
AcDbLine
 10
-4.5588794201
 20
-2.0068633263
 30
0.0
 11
-3.8000980429
 21
-2.0068633263
 31
0.0
  0
LINE
  5
B1
330
1F
100
AcDbEntity
  8
0
  6
Continuous
 62
     7
370
    25
100
AcDbLine
 10
-3.8000980429
 20
-2.0068633263
 30
0.0
 11
-3.8000980429
 21
-0.9711544392
 31
0.0
  0
LINE
  5
B2
330
1F
100
AcDbEntity
  8
0
  6
Continuous
 62
     7
370
    25
100
AcDbLine
 10
-3.8000980429
 20
-0.9711544392
 30
0.0
 11
-3.3182441757
 21
-0.9711544392
 31
0.0
  0
LINE
  5
B3
330
1F
100
AcDbEntity
  8
0
  6
Continuous
 62
     7
370
    25
100
AcDbLine
 10
-3.3182441757
 20
-0.9711544392
 30
0.0
 11
-3.3182441757
 21
-0.3621791856
 31
0.0
  0
LINE
  5
B4
330
1F
100
AcDbEntity
  8
0
  6
Continuous
 62
     7
370
    25
100
AcDbLine
 10
-3.3182441757
 20
-0.3621791856
 30
0.0
 11
-3.8000980429
 21
-0.3621791856
 31
0.0
  0
LINE
  5
B5
330
1F
100
AcDbEntity
  8
0
  6
Continuous
 62
     7
370
    25
100
AcDbLine
 10
-3.8000980429
 20
-0.3621791856
 30
0.0
 11
-3.8000980429
 21
2.200620202
 31
0.0
  0
LINE
  5
B6
330
1F
100
AcDbEntity
  8
0
  6
Continuous
 62
     7
370
    25
100
AcDbLine
 10
-3.8000980429
 20
2.200620202
 30
0.0
 11
-4.7250359261
 21
2.200620202
 31
0.0
  0
LINE
  5
B7
330
1F
100
AcDbEntity
  8
0
  6
Continuous
 62
     7
370
    25
100
AcDbLine
 10
-4.7250359261
 20
2.200620202
 30
0.0
 11
-6.2481372306
 21
-0.4491441268
 31
0.0
  0
LINE
  5
B8
330
1F
100
AcDbEntity
  8
0
  6
Continuous
 62
     7
370
    25
100
AcDbLine
 10
-6.2481372306
 20
-0.4491441268
 30
0.0
 11
-6.2481372306
 21
-0.9711544392
 31
0.0
  0
LINE
  5
B9
330
1F
100
AcDbEntity
  8
0
  6
Continuous
 62
     7
370
    25
100
AcDbLine
 10
-6.2481372306
 20
-0.9711544392
 30
0.0
 11
-5.0588794201
 21
-0.9711544392
 31
0.0
  0
LINE
  5
BA
330
1F
100
AcDbEntity
  8
0
  6
Continuous
 62
     7
370
    25
100
AcDbLine
 10
-5.0588794201
 20
-0.3621791856
 30
0.0
 11
-5.0588794201
 21
-0.9711544392
 31
0.0
  0
LINE
  5
BB
330
1F
100
AcDbEntity
  8
0
  6
Continuous
 62
     7
370
    25
100
AcDbLine
 10
-5.0588794201
 20
-0.3621791856
 30
0.0
 11
-5.5170486044
 21
-0.3621791856
 31
0.0
  0
LINE
  5
BC
330
1F
100
AcDbEntity
  8
0
  6
Continuous
 62
     7
370
    25
100
AcDbLine
 10
-5.5170486044
 20
-0.3621791856
 30
0.0
 11
-5.5170486044
 21
-0.3507703043
 31
0.0
  0
LINE
  5
BD
330
1F
100
AcDbEntity
  8
0
  6
Continuous
 62
     7
370
    25
100
AcDbLine
 10
-5.5170486044
 20
-0.3507703043
 30
0.0
 11
-4.9022695324
 21
0.7330734199
 31
0.0
  0
LINE
  5
BE
330
1F
100
AcDbEntity
  8
0
  6
Continuous
 62
     7
370
    25
100
AcDbLine
 10
0.391025713
 20
-1.2035254944
 30
0.0
 11
0.230868651
 21
-1.8245191985
 31
0.0
  0
LINE
  5
BF
330
1F
100
AcDbEntity
  8
0
  6
Continuous
 62
     7
370
    25
100
AcDbLine
 10
1.1778848323
 20
0.692308188
 30
0.0
 11
1.2887317389
 21
1.5416657537
 31
0.0
  0
LINE
  5
C0
330
1F
100
AcDbEntity
  8
0
  6
Continuous
 62
     7
370
    25
100
AcDbLine
 10
1.2887317389
 20
1.5416657537
 30
0.0
 11
2.7025753987
 21
1.5416657537
 31
0.0
  0
LINE
  5
C1
330
1F
100
AcDbEntity
  8
0
  6
Continuous
 62
     7
370
    25
100
AcDbLine
 10
2.7025753987
 20
1.5416657537
 30
0.0
 11
2.7025753987
 21
2.2019230681
 31
0.0
  0
LINE
  5
C2
330
1F
100
AcDbEntity
  8
0
  6
Continuous
 62
     7
370
    25
100
AcDbLine
 10
2.7025753987
 20
2.2019230681
 30
0.0
 11
0.7071839681
 21
2.2019230681
 31
0.0
  0
LINE
  5
C3
330
1F
100
AcDbEntity
  8
0
  6
Continuous
 62
     7
370
    25
100
AcDbLine
 10
0.7071839681
 20
2.2019230681
 30
0.0
 11
0.452410659
 21
0.0835074324
 31
0.0
  0
LINE
  5
C4
330
1F
100
AcDbEntity
  8
0
  6
Continuous
 62
     7
370
    25
100
AcDbLine
 10
4.2804495061
 20
0.5088145645
 30
0.0
 11
4.0152916109
 21
0.5096150642
 31
0.0
  0
LINE
  5
C5
330
1F
100
AcDbEntity
  8
0
  6
Continuous
 62
     7
370
    25
100
AcDbLine
 10
4.0152916109
 20
0.5096150642
 30
0.0
 11
4.0152916109
 21
-0.0480773462
 31
0.0
  0
LINE
  5
C6
330
1F
100
AcDbEntity
  8
0
  6
Continuous
 62
     7
370
    25
100
AcDbLine
 10
4.0152916109
 20
-0.0480773462
 30
0.0
 11
4.2977576711
 21
-0.0480773462
 31
0.0
  0
LINE
  5
C7
330
1F
100
AcDbEntity
  8
0
  6
Continuous
 62
     7
370
    25
100
AcDbLine
 10
3.5633019381
 20
-1.165865231
 30
0.0
 11
3.381228556
 21
-1.7874520717
 31
0.0
  0
LINE
  5
C8
330
1F
100
AcDbEntity
  8
0
  6
Continuous
 62
     7
370
    25
100
AcDbLine
 10
5.114584275
 20
0.2628209294
 30
0.0
 11
5.1147947681
 21
0.2736718867
 31
0.0
  0
LINE
  5
C9
330
1F
100
AcDbEntity
  8
0
  6
Continuous
 62
     7
370
    25
100
AcDbLine
 10
3.5440711653
 20
1.9591353443
 30
0.0
 11
3.6913873671
 21
1.3724105393
 31
0.0
  0
LINE
  5
CA
330
1F
100
AcDbEntity
  8
0
  6
Continuous
 62
     7
370
    25
100
AcDbLine
 10
-7.5
 20
-3.0
 30
0.0
 11
7.5
 21
-3.0
 31
0.0
  0
LINE
  5
CB
330
1F
100
AcDbEntity
  8
0
  6
Continuous
 62
     7
370
    25
100
AcDbLine
 10
-7.5
 20
3.0
 30
0.0
 11
-7.5
 21
-3.0
 31
0.0
  0
LINE
  5
CC
330
1F
100
AcDbEntity
  8
0
  6
Continuous
 62
     7
370
    25
100
AcDbLine
 10
7.5
 20
3.0
 30
0.0
 11
-7.5
 21
3.0
 31
0.0
  0
LINE
  5
CD
330
1F
100
AcDbEntity
  8
0
  6
Continuous
 62
     7
370
    25
100
AcDbLine
 10
7.5
 20
-3.0
 30
0.0
 11
7.5
 21
3.0
 31
0.0
  0
LINE
  5
CE
330
1F
100
AcDbEntity
  8
0
  6
Continuous
 62
     7
370
    25
100
AcDbLine
 10
-2.3375608395
 20
-0.3507703043
 30
0.0
 11
-2.3375608395
 21
-0.3621791856
 31
0.0
  0
LINE
  5
CF
330
1F
100
AcDbEntity
  8
0
  6
Continuous
 62
     7
370
    25
100
AcDbLine
 10
-1.7227817675
 20
0.7330734199
 30
0.0
 11
-2.3375608395
 21
-0.3507703043
 31
0.0
  0
LINE
  5
D0
330
1F
100
AcDbEntity
  8
0
  6
Continuous
 62
     7
370
    25
100
AcDbLine
 10
-1.346160354
 20
1.4916857766
 30
0.0
 11
-1.3685899956
 21
1.4911865402
 31
0.0
  0
LINE
  5
D1
330
1F
100
AcDbEntity
  8
0
  6
Continuous
 62
     7
370
    25
100
AcDbLine
 10
-1.3793916552
 20
-0.3621791856
 30
0.0
 11
-1.3798079464
 21
0.7099363964
 31
0.0
  0
LINE
  5
D2
330
1F
100
AcDbEntity
  8
0
  6
Continuous
 62
     7
370
    25
100
AcDbLine
 10
-1.3793916552
 20
-0.3621791856
 30
0.0
 11
-1.3793916552
 21
-2.0068633263
 31
0.0
  0
LINE
  5
D3
330
1F
100
AcDbEntity
  8
0
  6
Continuous
 62
     7
370
    25
100
AcDbLine
 10
-1.3793916552
 20
-2.0068633263
 30
0.0
 11
-0.620610278
 21
-2.0068633263
 31
0.0
  0
LINE
  5
D4
330
1F
100
AcDbEntity
  8
0
  6
Continuous
 62
     7
370
    25
100
AcDbLine
 10
-0.620610278
 20
-2.0068633263
 30
0.0
 11
-0.620610278
 21
-0.9711544392
 31
0.0
  0
LINE
  5
D5
330
1F
100
AcDbEntity
  8
0
  6
Continuous
 62
     7
370
    25
100
AcDbLine
 10
-0.620610278
 20
-0.9711544392
 30
0.0
 11
-0.1387564108
 21
-0.9711544392
 31
0.0
  0
LINE
  5
D6
330
1F
100
AcDbEntity
  8
0
  6
Continuous
 62
     7
370
    25
100
AcDbLine
 10
-0.1387564108
 20
-0.9711544392
 30
0.0
 11
-0.1387564108
 21
-0.3621791856
 31
0.0
  0
LINE
  5
D7
330
1F
100
AcDbEntity
  8
0
  6
Continuous
 62
     7
370
    25
100
AcDbLine
 10
-0.1387564108
 20
-0.3621791856
 30
0.0
 11
-0.620610278
 21
-0.3621791856
 31
0.0
  0
LINE
  5
D8
330
1F
100
AcDbEntity
  8
0
  6
Continuous
 62
     7
370
    25
100
AcDbLine
 10
-0.620610278
 20
-0.3621791856
 30
0.0
 11
-0.620610278
 21
2.200620202
 31
0.0
  0
LINE
  5
D9
330
1F
100
AcDbEntity
  8
0
  6
Continuous
 62
     7
370
    25
100
AcDbLine
 10
-0.620610278
 20
2.200620202
 30
0.0
 11
-1.5455481612
 21
2.200620202
 31
0.0
  0
LINE
  5
DA
330
1F
100
AcDbEntity
  8
0
  6
Continuous
 62
     7
370
    25
100
AcDbLine
 10
-1.5455481612
 20
2.200620202
 30
0.0
 11
-3.0686494657
 21
-0.4491441268
 31
0.0
  0
LINE
  5
DB
330
1F
100
AcDbEntity
  8
0
  6
Continuous
 62
     7
370
    25
100
AcDbLine
 10
-3.0686494657
 20
-0.4491441268
 30
0.0
 11
-3.0686494657
 21
-0.9711544392
 31
0.0
  0
LINE
  5
DC
330
1F
100
AcDbEntity
  8
0
  6
Continuous
 62
     7
370
    25
100
AcDbLine
 10
-3.0686494657
 20
-0.9711544392
 30
0.0
 11
-1.8793916552
 21
-0.9711544392
 31
0.0
  0
LINE
  5
DD
330
1F
100
AcDbEntity
  8
0
  6
Continuous
 62
     7
370
    25
100
AcDbLine
 10
-1.8793916552
 20
-0.3621791856
 30
0.0
 11
-1.8793916552
 21
-0.9711544392
 31
0.0
  0
LINE
  5
DE
330
1F
100
AcDbEntity
  8
0
  6
Continuous
 62
     7
370
    25
100
AcDbLine
 10
-2.3375608395
 20
-0.3621791856
 30
0.0
 11
-1.8793916552
 21
-0.3621791856
 31
0.0
  0
MTEXT
  5
E0
330
1F
100
AcDbEntity
  8
0
  6
Continuous
 62
     7
100
AcDbMText
 10
-7.5
 20
-3.0401404091
 30
0.0
 40
0.1903
 41
0.0
 71
     1
 72
     1
  1
SOLIDWORKS Educational Product.
  7
SLDTEXTSTYLE0
 73
     1
 44
1.0
  0
MTEXT
  5
E1
330
1F
100
AcDbEntity
  8
0
  6
Continuous
 62
     7
100
AcDbMText
 10
-7.5
 20
-3.3255904091
 30
0.0
 40
0.1903
 41
0.0
 71
     1
 72
     1
  1
For Instructional Use Only.
  7
SLDTEXTSTYLE0
 73
     1
 44
1.0
  0
ENDSEC
  0
SECTION
  2
OBJECTS
  0
DICTIONARY
  5
C
330
0
100
AcDbDictionary
281
     1
  3
ACAD_GROUP
350
D
  3
ACAD_LAYOUT
350
1A
  3
ACAD_MLINESTYLE
350
17
  3
ACAD_PLOTSETTINGS
350
19
  3
ACAD_PLOTSTYLENAME
350
E
  3
ACAD_SCALELIST
350
47
  3
DWGPROPS
350
E2
  0
DICTIONARY
  5
D
102
{ACAD_REACTORS
330
C
102
}
330
C
100
AcDbDictionary
281
     1
  0
DICTIONARY
  5
1A
102
{ACAD_REACTORS
330
C
102
}
330
C
100
AcDbDictionary
281
     1
  3
Layout1
350
1E
  3
Layout2
350
26
  3
Model
350
22
  0
DICTIONARY
  5
17
102
{ACAD_REACTORS
330
C
102
}
330
C
100
AcDbDictionary
281
     1
  3
Standard
350
18
  0
DICTIONARY
  5
19
102
{ACAD_REACTORS
330
C
102
}
330
C
100
AcDbDictionary
281
     1
  0
ACDBDICTIONARYWDFLT
  5
E
102
{ACAD_REACTORS
330
C
102
}
330
C
100
AcDbDictionary
281
     1
  3
Normal
350
F
100
AcDbDictionaryWithDefault
340
F
  0
DICTIONARY
  5
47
102
{ACAD_REACTORS
330
C
102
}
330
C
100
AcDbDictionary
281
     1
  3
A0
350
48
  3
A1
350
49
  3
A2
350
4A
  3
A3
350
4B
  3
A4
350
4C
  3
A5
350
4D
  3
A6
350
4E
  3
A7
350
4F
  3
A8
350
50
  3
A9
350
51
  3
B1
350
52
  3
B2
350
53
  3
B3
350
54
  3
B4
350
55
  3
B5
350
56
  3
B6
350
57
  3
B7
350
58
  0
XRECORD
  5
E2
102
{ACAD_REACTORS
330
C
102
}
330
C
100
AcDbXrecord
280
     1
  1
DWGPROPS COOKIE
  2

  3

  4

  6

  7

  8
robot
  9

300
=
301
=
302
=
303
=
304
=
305
=
306
=
307
=
308
=
309
=
 40
0.0
 41
2460370.879202489
 42
2460370.879241007
  1

 90
        0
  0
LAYOUT
  5
1E
102
{ACAD_REACTORS
330
1A
102
}
330
1A
100
AcDbPlotSettings
  1

  2
none_device
  4

  6

 40
0.0
 41
0.0
 42
0.0
 43
0.0
 44
0.0
 45
0.0
 46
0.0
 47
0.0
 48
0.0
 49
0.0
140
0.0
141
0.0
142
1.0
143
1.0
 70
   688
 72
     0
 73
     0
 74
     5
  7

 75
    16
147
1.0
148
0.0
149
0.0
100
AcDbLayout
  1
Layout1
 70
     1
 71
     1
 10
0.0
 20
0.0
 11
12.0
 21
9.0
 12
0.0
 22
0.0
 32
0.0
 14
1.0000000000E+20
 24
1.0000000000E+20
 34
1.0000000000E+20
 15
-1.0000000000E+20
 25
-1.0000000000E+20
 35
-1.0000000000E+20
146
0.0
 13
0.0
 23
0.0
 33
0.0
 16
1.0
 26
0.0
 36
0.0
 17
0.0
 27
1.0
 37
0.0
 76
     0
330
1B
  0
LAYOUT
  5
26
102
{ACAD_REACTORS
330
1A
102
}
330
1A
100
AcDbPlotSettings
  1

  2
none_device
  4

  6

 40
0.0
 41
0.0
 42
0.0
 43
0.0
 44
0.0
 45
0.0
 46
0.0
 47
0.0
 48
0.0
 49
0.0
140
0.0
141
0.0
142
1.0
143
1.0
 70
   688
 72
     0
 73
     0
 74
     5
  7

 75
    16
147
1.0
148
0.0
149
0.0
100
AcDbLayout
  1
Layout2
 70
     1
 71
     2
 10
0.0
 20
0.0
 11
0.0
 21
0.0
 12
0.0
 22
0.0
 32
0.0
 14
0.0
 24
0.0
 34
0.0
 15
0.0
 25
0.0
 35
0.0
146
0.0
 13
0.0
 23
0.0
 33
0.0
 16
1.0
 26
0.0
 36
0.0
 17
0.0
 27
1.0
 37
0.0
 76
     0
330
23
  0
LAYOUT
  5
22
102
{ACAD_REACTORS
330
1A
102
}
330
1A
100
AcDbPlotSettings
  1

  2
none_device
  4
ANSI_A_(11.00_x_8.50_Inches)
  6

 40
6.35
 41
19.05
 42
6.35000508
 43
19.05000254
 44
279.4
 45
215.9
 46
133.34999746
 47
88.89999873
 48
0.0
 49
0.0
140
0.0
141
0.0
142
0.726
143
1.0
 70
  1696
 72
     0
 73
     0
 74
     0
  7

 75
     0
147
0.5913241897
148
-39.4088153714
149
0.0
100
AcDbLayout
  1
Model
 70
     1
 71
     0
 10
0.0
 20
0.0
 11
12.0
 21
9.0
 12
0.0
 22
0.0
 32
0.0
 14
-7.5
 24
-3.0
 34
0.0
 15
7.5
 25
3.0
 35
0.0
146
0.0
 13
0.0
 23
0.0
 33
0.0
 16
1.0
 26
0.0
 36
0.0
 17
0.0
 27
1.0
 37
0.0
 76
     0
330
1F
331
29
  0
MLINESTYLE
  5
18
102
{ACAD_REACTORS
330
17
102
}
330
17
100
AcDbMlineStyle
  2
Standard
 70
     0
  3

 62
   256
 51
90.0
 52
90.0
 71
     2
 49
0.5
 62
   256
  6
BYLAYER
 49
-0.5
 62
   256
  6
BYLAYER
  0
ACDBPLACEHOLDER
  5
F
102
{ACAD_REACTORS
330
E
102
}
330
E
  0
SCALE
  5
48
102
{ACAD_REACTORS
330
47
102
}
330
47
100
AcDbScale
 70
     0
300
1:1
140
1.0
141
1.0
290
     1
  0
SCALE
  5
49
102
{ACAD_REACTORS
330
47
102
}
330
47
100
AcDbScale
 70
     0
300
1/128" = 1'-0"
140
0.0078125
141
12.0
290
     0
  0
SCALE
  5
4A
102
{ACAD_REACTORS
330
47
102
}
330
47
100
AcDbScale
 70
     0
300
1/64" = 1'-0"
140
0.015625
141
12.0
290
     0
  0
SCALE
  5
4B
102
{ACAD_REACTORS
330
47
102
}
330
47
100
AcDbScale
 70
     0
300
1/32" = 1'-0"
140
0.03125
141
12.0
290
     0
  0
SCALE
  5
4C
102
{ACAD_REACTORS
330
47
102
}
330
47
100
AcDbScale
 70
     0
300
1/16" = 1'-0"
140
0.0625
141
12.0
290
     0
  0
SCALE
  5
4D
102
{ACAD_REACTORS
330
47
102
}
330
47
100
AcDbScale
 70
     0
300
3/32" = 1'-0"
140
0.09375
141
12.0
290
     0
  0
SCALE
  5
4E
102
{ACAD_REACTORS
330
47
102
}
330
47
100
AcDbScale
 70
     0
300
1/8" = 1'-0"
140
0.125
141
12.0
290
     0
  0
SCALE
  5
4F
102
{ACAD_REACTORS
330
47
102
}
330
47
100
AcDbScale
 70
     0
300
3/16" = 1'-0"
140
0.1875
141
12.0
290
     0
  0
SCALE
  5
50
102
{ACAD_REACTORS
330
47
102
}
330
47
100
AcDbScale
 70
     0
300
1/4" = 1'-0"
140
0.25
141
12.0
290
     0
  0
SCALE
  5
51
102
{ACAD_REACTORS
330
47
102
}
330
47
100
AcDbScale
 70
     0
300
3/8" = 1'-0"
140
0.375
141
12.0
290
     0
  0
SCALE
  5
52
102
{ACAD_REACTORS
330
47
102
}
330
47
100
AcDbScale
 70
     0
300
1/2" = 1'-0"
140
0.5
141
12.0
290
     0
  0
SCALE
  5
53
102
{ACAD_REACTORS
330
47
102
}
330
47
100
AcDbScale
 70
     0
300
3/4" = 1'-0"
140
0.75
141
12.0
290
     0
  0
SCALE
  5
54
102
{ACAD_REACTORS
330
47
102
}
330
47
100
AcDbScale
 70
     0
300
1" = 1'-0"
140
1.0
141
12.0
290
     0
  0
SCALE
  5
55
102
{ACAD_REACTORS
330
47
102
}
330
47
100
AcDbScale
 70
     0
300
1-1/2" = 1'-0"
140
1.5
141
12.0
290
     0
  0
SCALE
  5
56
102
{ACAD_REACTORS
330
47
102
}
330
47
100
AcDbScale
 70
     0
300
3" = 1'-0"
140
3.0
141
12.0
290
     0
  0
SCALE
  5
57
102
{ACAD_REACTORS
330
47
102
}
330
47
100
AcDbScale
 70
     0
300
6" = 1'-0"
140
6.0
141
12.0
290
     0
  0
SCALE
  5
58
102
{ACAD_REACTORS
330
47
102
}
330
47
100
AcDbScale
 70
     0
300
1'-0" = 1'-0"
140
12.0
141
12.0
290
     0
  0
ENDSEC
  0
EOF
